<svg xmlns="http://www.w3.org/2000/svg" viewBox="0 0 32 32" shape-rendering="crispEdges"><rect x="22" y="6" width="1" height="1" fill="#1d201c" /><rect x="23" y="6" width="3" height="1" fill="#05090c" /><rect x="22" y="7" width="5" height="1" fill="#05090c" /><rect x="21" y="7" width="1" height="2" fill="#1d201c" /><rect x="20" y="8" width="1" height="1" fill="#05090c" /><rect x="22" y="8" width="1" height="1" fill="#05090c" /><rect x="23" y="8" width="2" height="1" fill="#ecc644" /><rect x="25" y="8" width="1" height="1" fill="#1d201c" /><rect x="26" y="8" width="1" height="1" fill="#05090c" /><rect x="27" y="8" width="1" height="1" fill="#1d201c" /><rect x="18" y="9" width="1" height="1" fill="#e6e6d9" /><rect x="20" y="9" width="2" height="1" fill="#05090c" /><rect x="22" y="9" width="4" height="1" fill="#ecc644" /><rect x="26" y="9" width="1" height="2" fill="#1d201c" /><rect x="27" y="9" width="1" height="2" fill="#05090c" /><rect x="19" y="10" width="1" height="1" fill="#05090c" /><rect x="20" y="10" width="1" height="1" fill="#d9b53e" /><rect x="21" y="10" width="1" height="1" fill="#ecc644" /><rect x="22" y="10" width="1" height="1" fill="#d9b53e" /><rect x="23" y="10" width="2" height="1" fill="#ecc644" /><rect x="25" y="10" width="1" height="2" fill="#d9b53e" /><rect x="17" y="11" width="1" height="1" fill="#05090c" /><rect x="18" y="11" width="1" height="1" fill="#1d201c" /><rect x="19" y="11" width="6" height="1" fill="#ecc644" /><rect x="26" y="11" width="2" height="1" fill="#05090c" /><rect x="7" y="12" width="3" height="1" fill="#05090c" /><rect x="16" y="12" width="2" height="1" fill="#05090c" /><rect x="18" y="12" width="1" height="1" fill="#d9b53e" /><rect x="19" y="12" width="1" height="1" fill="#ecc644" /><rect x="20" y="12" width="5" height="1" fill="#d9b53e" /><rect x="25" y="12" width="1" height="1" fill="#1d201c" /><rect x="26" y="12" width="1" height="1" fill="#05090c" /><rect x="6" y="13" width="1" height="1" fill="#1d201c" /><rect x="7" y="13" width="1" height="1" fill="#05090c" /><rect x="8" y="13" width="1" height="1" fill="#1d201c" /><rect x="11" y="13" width="1" height="1" fill="#e6e6d9" /><rect x="14" y="13" width="1" height="1" fill="#e6e6d9" /><rect x="15" y="13" width="2" height="1" fill="#05090c" /><rect x="17" y="13" width="1" height="1" fill="#1d201c" /><rect x="18" y="13" width="4" height="1" fill="#ecc644" /><rect x="22" y="13" width="1" height="1" fill="#d9b53e" /><rect x="23" y="13" width="1" height="1" fill="#1d201c" /><rect x="24" y="13" width="2" height="1" fill="#05090c" /><rect x="26" y="13" width="1" height="1" fill="#e6e6d9" /><rect x="9" y="13" width="2" height="2" fill="#05090c" /><rect x="5" y="14" width="3" height="1" fill="#05090c" /><rect x="8" y="14" width="1" height="1" fill="#ecc644" /><rect x="11" y="14" width="1" height="1" fill="#1d201c" /><rect x="14" y="14" width="2" height="1" fill="#1d201c" /><rect x="16" y="14" width="1" height="1" fill="#d9b53e" /><rect x="17" y="14" width="1" height="1" fill="#ecc644" /><rect x="18" y="14" width="2" height="1" fill="#d9b53e" /><rect x="20" y="14" width="1" height="1" fill="#ecc644" /><rect x="21" y="14" width="2" height="1" fill="#d9b53e" /><rect x="25" y="14" width="1" height="1" fill="#d9b53e" /><rect x="23" y="14" width="1" height="2" fill="#05090c" /><rect x="24" y="14" width="1" height="2" fill="#1d201c" /><rect x="4" y="15" width="1" height="1" fill="#e6e6d9" /><rect x="5" y="15" width="1" height="1" fill="#05090c" /><rect x="6" y="15" width="1" height="1" fill="#1d201c" /><rect x="7" y="15" width="2" height="1" fill="#ecc644" /><rect x="9" y="15" width="1" height="1" fill="#d9b53e" /><rect x="10" y="15" width="2" height="1" fill="#05090c" /><rect x="14" y="15" width="2" height="1" fill="#05090c" /><rect x="16" y="15" width="3" height="1" fill="#ecc644" /><rect x="19" y="15" width="3" height="1" fill="#d9b53e" /><rect x="22" y="15" width="1" height="1" fill="#1d201c" /><rect x="6" y="16" width="4" height="1" fill="#ecc644" /><rect x="10" y="16" width="1" height="1" fill="#d9b53e" /><rect x="11" y="16" width="1" height="1" fill="#05090c" /><rect x="13" y="16" width="2" height="1" fill="#05090c" /><rect x="15" y="16" width="5" height="1" fill="#ecc644" /><rect x="20" y="16" width="1" height="1" fill="#d9b53e" /><rect x="21" y="16" width="2" height="1" fill="#05090c" /><rect x="23" y="16" width="1" height="1" fill="#1d201c" /><rect x="4" y="16" width="2" height="2" fill="#1d201c" /><rect x="12" y="16" width="1" height="2" fill="#1d201c" /><rect x="6" y="17" width="1" height="1" fill="#d9b53e" /><rect x="13" y="17" width="1" height="1" fill="#05090c" /><rect x="14" y="17" width="3" height="1" fill="#ecc644" /><rect x="17" y="17" width="3" height="1" fill="#d9b53e" /><rect x="20" y="17" width="1" height="1" fill="#05090c" /><rect x="21" y="17" width="1" height="1" fill="#1d201c" /><rect x="7" y="17" width="5" height="2" fill="#ecc644" /><rect x="4" y="18" width="1" height="1" fill="#d9b53e" /><rect x="5" y="18" width="1" height="1" fill="#05090c" /><rect x="6" y="18" width="1" height="1" fill="#1d201c" /><rect x="12" y="18" width="1" height="1" fill="#d9b53e" /><rect x="13" y="18" width="5" height="1" fill="#ecc644" /><rect x="18" y="18" width="1" height="1" fill="#d9b53e" /><rect x="19" y="18" width="2" height="1" fill="#05090c" /><rect x="21" y="18" width="1" height="1" fill="#e6e6d9" /><rect x="5" y="19" width="2" height="1" fill="#1d201c" /><rect x="7" y="19" width="1" height="1" fill="#05090c" /><rect x="8" y="19" width="1" height="1" fill="#d9b53e" /><rect x="16" y="19" width="2" height="1" fill="#d9b53e" /><rect x="19" y="19" width="2" height="1" fill="#1d201c" /><rect x="9" y="19" width="7" height="2" fill="#ecc644" /><rect x="18" y="19" width="1" height="2" fill="#05090c" /><rect x="6" y="20" width="3" height="1" fill="#05090c" /><rect x="16" y="20" width="1" height="1" fill="#d9b53e" /><rect x="17" y="20" width="1" height="1" fill="#1d201c" /><rect x="19" y="20" width="1" height="1" fill="#d9b53e" /><rect x="7" y="21" width="1" height="1" fill="#05090c" /><rect x="8" y="21" width="2" height="1" fill="#1d201c" /><rect x="10" y="21" width="6" height="1" fill="#ecc644" /><rect x="16" y="21" width="2" height="1" fill="#05090c" /><rect x="8" y="22" width="1" height="1" fill="#1d201c" /><rect x="9" y="22" width="2" height="1" fill="#05090c" /><rect x="11" y="22" width="3" height="1" fill="#ecc644" /><rect x="14" y="22" width="1" height="1" fill="#d9b53e" /><rect x="15" y="22" width="1" height="1" fill="#05090c" /><rect x="16" y="22" width="1" height="1" fill="#1d201c" /><rect x="17" y="22" width="1" height="1" fill="#e6e6d9" /><rect x="9" y="23" width="3" height="1" fill="#05090c" /><rect x="12" y="23" width="2" height="1" fill="#ecc644" /><rect x="14" y="23" width="3" height="1" fill="#05090c" /><rect x="9" y="24" width="1" height="1" fill="#e6e6d9" /><rect x="10" y="24" width="1" height="1" fill="#05090c" /><rect x="11" y="24" width="1" height="1" fill="#1d201c" /><rect x="12" y="24" width="4" height="1" fill="#05090c" /><rect x="11" y="25" width="3" height="1" fill="#05090c" /><rect x="14" y="25" width="1" height="1" fill="#e6e6d9" /></svg>