<svg xmlns="http://www.w3.org/2000/svg" viewBox="0 0 32 32" shape-rendering="crispEdges"><rect x="10" y="4" width="3" height="1" fill="#030709" /><rect x="19" y="4" width="3" height="1" fill="#030709" /><rect x="9" y="5" width="5" height="1" fill="#030709" /><rect x="18" y="5" width="1" height="1" fill="#0f1516" /><rect x="19" y="5" width="1" height="1" fill="#030709" /><rect x="20" y="5" width="2" height="1" fill="#0f1516" /><rect x="22" y="5" width="1" height="1" fill="#030709" /><rect x="8" y="6" width="1" height="1" fill="#030709" /><rect x="9" y="6" width="1" height="1" fill="#12191b" /><rect x="10" y="6" width="1" height="1" fill="#eedb8f" /><rect x="11" y="6" width="2" height="1" fill="#ebc540" /><rect x="13" y="6" width="2" height="1" fill="#030709" /><rect x="17" y="6" width="2" height="1" fill="#030709" /><rect x="19" y="6" width="3" height="1" fill="#ebc540" /><rect x="22" y="6" width="1" height="1" fill="#0f1516" /><rect x="23" y="6" width="1" height="2" fill="#12191b" /><rect x="8" y="7" width="1" height="1" fill="#12191b" /><rect x="9" y="7" width="1" height="1" fill="#ebc540" /><rect x="10" y="7" width="3" height="1" fill="#e2bd41" /><rect x="14" y="7" width="1" height="1" fill="#0f1516" /><rect x="15" y="7" width="2" height="1" fill="#eedb8f" /><rect x="17" y="7" width="1" height="1" fill="#0f1516" /><rect x="18" y="7" width="2" height="1" fill="#ebc540" /><rect x="20" y="7" width="2" height="1" fill="#e2bd41" /><rect x="22" y="7" width="1" height="1" fill="#ebc540" /><rect x="13" y="7" width="1" height="2" fill="#ebc540" /><rect x="8" y="8" width="1" height="1" fill="#0f1516" /><rect x="9" y="8" width="2" height="1" fill="#ebc540" /><rect x="11" y="8" width="2" height="1" fill="#e2bd41" /><rect x="14" y="8" width="3" height="1" fill="#0f1516" /><rect x="17" y="8" width="1" height="1" fill="#030709" /><rect x="18" y="8" width="5" height="1" fill="#ebc540" /><rect x="23" y="8" width="1" height="1" fill="#0f1516" /><rect x="9" y="9" width="1" height="1" fill="#0f1516" /><rect x="10" y="9" width="1" height="1" fill="#e2bd41" /><rect x="11" y="9" width="1" height="1" fill="#ebc540" /><rect x="12" y="9" width="2" height="1" fill="#e2bd41" /><rect x="14" y="9" width="1" height="1" fill="#ebc540" /><rect x="15" y="9" width="1" height="1" fill="#0f1516" /><rect x="16" y="9" width="1" height="1" fill="#12191b" /><rect x="20" y="9" width="2" height="1" fill="#ebc540" /><rect x="22" y="9" width="1" height="1" fill="#0f1516" /><rect x="17" y="9" width="2" height="2" fill="#ebc540" /><rect x="19" y="9" width="1" height="2" fill="#e2bd41" /><rect x="6" y="10" width="1" height="1" fill="#030709" /><rect x="7" y="10" width="1" height="1" fill="#12191b" /><rect x="8" y="10" width="1" height="1" fill="#0f1516" /><rect x="9" y="10" width="2" height="1" fill="#12191b" /><rect x="11" y="10" width="1" height="1" fill="#030709" /><rect x="12" y="10" width="1" height="1" fill="#e2bd41" /><rect x="13" y="10" width="2" height="1" fill="#ebc540" /><rect x="15" y="10" width="2" height="1" fill="#12191b" /><rect x="20" y="10" width="1" height="1" fill="#373421" /><rect x="21" y="10" width="1" height="1" fill="#12191b" /><rect x="22" y="10" width="2" height="1" fill="#0f1516" /><rect x="24" y="10" width="1" height="1" fill="#12191b" /><rect x="25" y="10" width="1" height="1" fill="#0f1516" /><rect x="5" y="11" width="2" height="1" fill="#12191b" /><rect x="7" y="11" width="1" height="1" fill="#0f1516" /><rect x="8" y="11" width="3" height="1" fill="#030709" /><rect x="11" y="11" width="2" height="1" fill="#0f1516" /><rect x="13" y="11" width="3" height="1" fill="#12191b" /><rect x="16" y="11" width="1" height="1" fill="#0f1516" /><rect x="17" y="11" width="2" height="1" fill="#373421" /><rect x="19" y="11" width="1" height="1" fill="#0f1516" /><rect x="20" y="11" width="1" height="1" fill="#12191b" /><rect x="21" y="11" width="1" height="1" fill="#0f1516" /><rect x="22" y="11" width="2" height="1" fill="#030709" /><rect x="24" y="11" width="1" height="1" fill="#0f1516" /><rect x="25" y="11" width="1" height="1" fill="#12191b" /><rect x="26" y="11" width="1" height="1" fill="#0f1516" /><rect x="4" y="12" width="1" height="1" fill="#030709" /><rect x="5" y="12" width="1" height="1" fill="#12191b" /><rect x="6" y="12" width="1" height="1" fill="#e2bd41" /><rect x="7" y="12" width="3" height="1" fill="#eedb8f" /><rect x="10" y="12" width="1" height="1" fill="#ebc540" /><rect x="11" y="12" width="1" height="1" fill="#030709" /><rect x="12" y="12" width="6" height="1" fill="#12191b" /><rect x="18" y="12" width="1" height="1" fill="#0f1516" /><rect x="21" y="12" width="2" height="1" fill="#ebc540" /><rect x="23" y="12" width="2" height="1" fill="#eedb8f" /><rect x="25" y="12" width="1" height="1" fill="#373421" /><rect x="26" y="12" width="2" height="1" fill="#030709" /><rect x="6" y="13" width="2" height="1" fill="#eedb8f" /><rect x="8" y="13" width="2" height="1" fill="#e2bd41" /><rect x="10" y="13" width="1" height="1" fill="#0f1516" /><rect x="11" y="13" width="2" height="1" fill="#12191b" /><rect x="13" y="13" width="5" height="1" fill="#eedb8f" /><rect x="22" y="13" width="2" height="1" fill="#ebc540" /><rect x="24" y="13" width="2" height="1" fill="#e2bd41" /><rect x="19" y="12" width="1" height="3" fill="#12191b" /><rect x="20" y="12" width="1" height="3" fill="#0f1516" /><rect x="11" y="14" width="2" height="1" fill="#0f1516" /><rect x="13" y="14" width="2" height="1" fill="#eedb8f" /><rect x="15" y="14" width="3" height="1" fill="#ebc540" /><rect x="22" y="14" width="3" height="1" fill="#ebc540" /><rect x="25" y="14" width="1" height="1" fill="#e2bd41" /><rect x="27" y="13" width="1" height="3" fill="#12191b" /><rect x="10" y="14" width="1" height="2" fill="#030709" /><rect x="4" y="13" width="1" height="4" fill="#12191b" /><rect x="5" y="13" width="1" height="4" fill="#373421" /><rect x="18" y="13" width="1" height="4" fill="#e2bd41" /><rect x="21" y="13" width="1" height="4" fill="#030709" /><rect x="26" y="13" width="1" height="4" fill="#373421" /><rect x="6" y="14" width="4" height="3" fill="#ebc540" /><rect x="11" y="15" width="2" height="2" fill="#12191b" /><rect x="13" y="15" width="1" height="2" fill="#eedb8f" /><rect x="14" y="15" width="4" height="2" fill="#ebc540" /><rect x="19" y="15" width="2" height="2" fill="#12191b" /><rect x="22" y="15" width="4" height="2" fill="#ebc540" /><rect x="10" y="16" width="1" height="1" fill="#0f1516" /><rect x="27" y="16" width="1" height="1" fill="#0f1516" /><rect x="4" y="17" width="2" height="1" fill="#12191b" /><rect x="6" y="17" width="1" height="1" fill="#0f1516" /><rect x="7" y="17" width="1" height="1" fill="#030709" /><rect x="8" y="17" width="1" height="1" fill="#0f1516" /><rect x="9" y="17" width="3" height="1" fill="#12191b" /><rect x="12" y="17" width="2" height="1" fill="#0f1516" /><rect x="14" y="17" width="1" height="1" fill="#030709" /><rect x="15" y="17" width="2" height="1" fill="#12191b" /><rect x="17" y="17" width="3" height="1" fill="#0f1516" /><rect x="20" y="17" width="4" height="1" fill="#12191b" /><rect x="24" y="17" width="1" height="1" fill="#0f1516" /><rect x="25" y="17" width="1" height="1" fill="#12191b" /><rect x="26" y="17" width="2" height="1" fill="#0f1516" /><rect x="5" y="18" width="1" height="1" fill="#12191b" /><rect x="7" y="18" width="3" height="1" fill="#373421" /><rect x="10" y="18" width="3" height="1" fill="#12191b" /><rect x="13" y="18" width="6" height="1" fill="#373421" /><rect x="22" y="18" width="3" height="1" fill="#373421" /><rect x="19" y="18" width="2" height="2" fill="#12191b" /><rect x="21" y="18" width="1" height="2" fill="#0f1516" /><rect x="26" y="18" width="1" height="2" fill="#0f1516" /><rect x="5" y="19" width="1" height="1" fill="#0f1516" /><rect x="10" y="19" width="1" height="1" fill="#0f1516" /><rect x="11" y="19" width="2" height="1" fill="#12191b" /><rect x="19" y="20" width="2" height="1" fill="#0f1516" /><rect x="21" y="20" width="1" height="1" fill="#030709" /><rect x="10" y="20" width="1" height="2" fill="#030709" /><rect x="11" y="20" width="1" height="2" fill="#12191b" /><rect x="12" y="20" width="1" height="2" fill="#0f1516" /><rect x="19" y="21" width="1" height="1" fill="#12191b" /><rect x="20" y="21" width="2" height="1" fill="#0f1516" /><rect x="13" y="19" width="1" height="4" fill="#eedb8f" /><rect x="14" y="19" width="4" height="4" fill="#ebc540" /><rect x="10" y="22" width="1" height="2" fill="#0f1516" /><rect x="19" y="22" width="2" height="2" fill="#12191b" /><rect x="5" y="20" width="1" height="5" fill="#12191b" /><rect x="26" y="20" width="1" height="5" fill="#12191b" /><rect x="11" y="22" width="2" height="3" fill="#12191b" /><rect x="21" y="22" width="1" height="3" fill="#0f1516" /><rect x="13" y="23" width="5" height="2" fill="#ebc540" /><rect x="19" y="24" width="1" height="1" fill="#0f1516" /><rect x="20" y="24" width="1" height="1" fill="#12191b" /><rect x="6" y="18" width="1" height="8" fill="#030709" /><rect x="25" y="18" width="1" height="8" fill="#030709" /><rect x="7" y="19" width="3" height="7" fill="#ebc540" /><rect x="18" y="19" width="1" height="7" fill="#e2bd41" /><rect x="22" y="19" width="3" height="7" fill="#ebc540" /><rect x="10" y="24" width="1" height="2" fill="#030709" /><rect x="5" y="25" width="1" height="1" fill="#0f1516" /><rect x="11" y="25" width="1" height="1" fill="#0f1516" /><rect x="12" y="25" width="1" height="1" fill="#12191b" /><rect x="13" y="25" width="1" height="1" fill="#eedb8f" /><rect x="14" y="25" width="4" height="1" fill="#ebc540" /><rect x="19" y="25" width="1" height="1" fill="#12191b" /><rect x="20" y="25" width="2" height="1" fill="#0f1516" /><rect x="26" y="25" width="1" height="1" fill="#0f1516" /><rect x="5" y="26" width="5" height="1" fill="#373421" /><rect x="10" y="26" width="1" height="1" fill="#0f1516" /><rect x="11" y="26" width="2" height="1" fill="#12191b" /><rect x="13" y="26" width="6" height="1" fill="#373421" /><rect x="19" y="26" width="2" height="1" fill="#12191b" /><rect x="21" y="26" width="1" height="1" fill="#0f1516" /><rect x="22" y="26" width="5" height="1" fill="#373421" /><rect x="6" y="27" width="1" height="1" fill="#373421" /><rect x="7" y="27" width="2" height="1" fill="#12191b" /><rect x="9" y="27" width="2" height="1" fill="#0f1516" /><rect x="11" y="27" width="6" height="1" fill="#12191b" /><rect x="17" y="27" width="2" height="1" fill="#0f1516" /><rect x="19" y="27" width="6" height="1" fill="#12191b" /><rect x="25" y="27" width="1" height="1" fill="#eedb8f" /></svg>