<svg xmlns="http://www.w3.org/2000/svg" viewBox="0 0 32 32" shape-rendering="crispEdges"><rect x="12" y="4" width="9" height="1" fill="#040709" /><rect x="9" y="5" width="1" height="1" fill="#f0d876" /><rect x="10" y="5" width="2" height="1" fill="#040709" /><rect x="12" y="5" width="2" height="1" fill="#111719" /><rect x="14" y="5" width="1" height="1" fill="#040709" /><rect x="15" y="5" width="1" height="1" fill="#0d1113" /><rect x="17" y="5" width="1" height="1" fill="#040709" /><rect x="18" y="5" width="1" height="1" fill="#111719" /><rect x="20" y="5" width="3" height="1" fill="#040709" /><rect x="16" y="5" width="1" height="2" fill="#111719" /><rect x="8" y="6" width="1" height="1" fill="#040709" /><rect x="9" y="6" width="1" height="1" fill="#21241c" /><rect x="10" y="6" width="2" height="1" fill="#111719" /><rect x="12" y="6" width="1" height="1" fill="#0d1113" /><rect x="13" y="6" width="1" height="1" fill="#040709" /><rect x="14" y="6" width="1" height="1" fill="#efc638" /><rect x="17" y="6" width="1" height="1" fill="#efc638" /><rect x="18" y="6" width="1" height="1" fill="#040709" /><rect x="20" y="6" width="2" height="1" fill="#111719" /><rect x="22" y="6" width="2" height="1" fill="#040709" /><rect x="19" y="5" width="1" height="3" fill="#0d1113" /><rect x="15" y="6" width="1" height="2" fill="#21241c" /><rect x="7" y="7" width="1" height="1" fill="#111719" /><rect x="8" y="7" width="1" height="1" fill="#0d1113" /><rect x="9" y="7" width="1" height="1" fill="#ac9030" /><rect x="10" y="7" width="2" height="1" fill="#efc638" /><rect x="12" y="7" width="1" height="1" fill="#111719" /><rect x="16" y="7" width="1" height="1" fill="#0d1113" /><rect x="17" y="7" width="2" height="1" fill="#efc638" /><rect x="20" y="7" width="1" height="1" fill="#21241c" /><rect x="21" y="7" width="1" height="1" fill="#efc638" /><rect x="22" y="7" width="1" height="1" fill="#21241c" /><rect x="23" y="7" width="1" height="1" fill="#111719" /><rect x="24" y="7" width="1" height="1" fill="#0d1113" /><rect x="13" y="7" width="2" height="2" fill="#efc638" /><rect x="6" y="8" width="2" height="1" fill="#040709" /><rect x="8" y="8" width="1" height="1" fill="#21241c" /><rect x="9" y="8" width="2" height="1" fill="#efc638" /><rect x="11" y="8" width="1" height="1" fill="#111719" /><rect x="12" y="8" width="1" height="1" fill="#ac9030" /><rect x="15" y="8" width="1" height="1" fill="#0d1113" /><rect x="16" y="8" width="1" height="1" fill="#040709" /><rect x="22" y="8" width="1" height="1" fill="#efc638" /><rect x="23" y="8" width="1" height="1" fill="#040709" /><rect x="24" y="8" width="2" height="1" fill="#0d1113" /><rect x="17" y="8" width="3" height="2" fill="#efc638" /><rect x="20" y="8" width="1" height="2" fill="#111719" /><rect x="21" y="8" width="1" height="2" fill="#ac9030" /><rect x="6" y="9" width="1" height="1" fill="#040709" /><rect x="8" y="9" width="3" height="1" fill="#efc638" /><rect x="11" y="9" width="1" height="1" fill="#0d1113" /><rect x="12" y="9" width="3" height="1" fill="#efc638" /><rect x="15" y="9" width="2" height="1" fill="#0d1113" /><rect x="22" y="9" width="2" height="1" fill="#efc638" /><rect x="7" y="9" width="1" height="2" fill="#0d1113" /><rect x="24" y="9" width="2" height="2" fill="#111719" /><rect x="5" y="10" width="1" height="1" fill="#040709" /><rect x="6" y="10" width="1" height="1" fill="#111719" /><rect x="8" y="10" width="1" height="1" fill="#040709" /><rect x="9" y="10" width="1" height="1" fill="#0d1113" /><rect x="10" y="10" width="2" height="1" fill="#111719" /><rect x="12" y="10" width="3" height="1" fill="#0d1113" /><rect x="15" y="10" width="3" height="1" fill="#111719" /><rect x="18" y="10" width="6" height="1" fill="#0d1113" /><rect x="26" y="10" width="1" height="1" fill="#040709" /><rect x="5" y="11" width="2" height="1" fill="#040709" /><rect x="9" y="11" width="1" height="1" fill="#21241c" /><rect x="10" y="11" width="1" height="1" fill="#0d1113" /><rect x="11" y="11" width="4" height="1" fill="#21241c" /><rect x="15" y="11" width="2" height="1" fill="#111719" /><rect x="17" y="11" width="4" height="1" fill="#21241c" /><rect x="21" y="11" width="1" height="1" fill="#111719" /><rect x="22" y="11" width="1" height="1" fill="#0d1113" /><rect x="25" y="11" width="2" height="1" fill="#040709" /><rect x="7" y="11" width="2" height="2" fill="#efc638" /><rect x="23" y="11" width="2" height="2" fill="#efc638" /><rect x="4" y="12" width="2" height="1" fill="#111719" /><rect x="6" y="12" width="1" height="1" fill="#040709" /><rect x="9" y="12" width="1" height="1" fill="#0d1113" /><rect x="10" y="12" width="1" height="1" fill="#040709" /><rect x="16" y="12" width="1" height="1" fill="#040709" /><rect x="21" y="12" width="2" height="1" fill="#0d1113" /><rect x="25" y="12" width="1" height="1" fill="#040709" /><rect x="26" y="12" width="2" height="1" fill="#111719" /><rect x="15" y="12" width="1" height="2" fill="#111719" /><rect x="4" y="13" width="1" height="1" fill="#0d1113" /><rect x="9" y="13" width="1" height="1" fill="#111719" /><rect x="16" y="13" width="1" height="1" fill="#0d1113" /><rect x="22" y="13" width="1" height="1" fill="#0d1113" /><rect x="27" y="13" width="1" height="1" fill="#111719" /><rect x="11" y="12" width="4" height="3" fill="#efc638" /><rect x="17" y="12" width="4" height="3" fill="#efc638" /><rect x="5" y="13" width="1" height="2" fill="#040709" /><rect x="6" y="13" width="3" height="2" fill="#efc638" /><rect x="10" y="13" width="1" height="2" fill="#21241c" /><rect x="21" y="13" width="1" height="2" fill="#ac9030" /><rect x="23" y="13" width="3" height="2" fill="#efc638" /><rect x="4" y="14" width="1" height="1" fill="#111719" /><rect x="9" y="14" width="1" height="1" fill="#0d1113" /><rect x="22" y="14" width="1" height="1" fill="#111719" /><rect x="27" y="14" width="1" height="1" fill="#21241c" /><rect x="26" y="13" width="1" height="3" fill="#040709" /><rect x="15" y="14" width="1" height="2" fill="#0d1113" /><rect x="16" y="14" width="1" height="2" fill="#111719" /><rect x="4" y="15" width="2" height="1" fill="#040709" /><rect x="6" y="15" width="3" height="1" fill="#21241c" /><rect x="9" y="15" width="2" height="1" fill="#0d1113" /><rect x="11" y="15" width="4" height="1" fill="#21241c" /><rect x="17" y="15" width="5" height="1" fill="#21241c" /><rect x="22" y="15" width="1" height="1" fill="#0d1113" /><rect x="23" y="15" width="3" height="1" fill="#21241c" /><rect x="27" y="15" width="1" height="1" fill="#111719" /><rect x="4" y="16" width="1" height="1" fill="#040709" /><rect x="5" y="16" width="2" height="1" fill="#111719" /><rect x="7" y="16" width="2" height="1" fill="#0d1113" /><rect x="9" y="16" width="1" height="1" fill="#111719" /><rect x="10" y="16" width="2" height="1" fill="#0d1113" /><rect x="12" y="16" width="1" height="1" fill="#111719" /><rect x="13" y="16" width="1" height="1" fill="#21241c" /><rect x="14" y="16" width="1" height="1" fill="#111719" /><rect x="15" y="16" width="3" height="1" fill="#0d1113" /><rect x="18" y="16" width="3" height="1" fill="#111719" /><rect x="21" y="16" width="3" height="1" fill="#0d1113" /><rect x="24" y="16" width="1" height="1" fill="#111719" /><rect x="25" y="16" width="1" height="1" fill="#21241c" /><rect x="26" y="16" width="2" height="1" fill="#111719" /><rect x="9" y="17" width="1" height="1" fill="#040709" /><rect x="15" y="17" width="1" height="1" fill="#111719" /><rect x="16" y="17" width="1" height="1" fill="#0d1113" /><rect x="17" y="17" width="5" height="1" fill="#efc638" /><rect x="22" y="17" width="1" height="1" fill="#0d1113" /><rect x="27" y="17" width="1" height="2" fill="#21241c" /><rect x="15" y="18" width="2" height="1" fill="#111719" /><rect x="17" y="18" width="4" height="1" fill="#efc638" /><rect x="21" y="18" width="1" height="1" fill="#ac9030" /><rect x="4" y="17" width="1" height="3" fill="#0d1113" /><rect x="5" y="17" width="1" height="3" fill="#040709" /><rect x="6" y="17" width="3" height="3" fill="#efc638" /><rect x="10" y="17" width="1" height="3" fill="#21241c" /><rect x="23" y="17" width="3" height="3" fill="#efc638" /><rect x="26" y="17" width="1" height="3" fill="#040709" /><rect x="9" y="18" width="1" height="2" fill="#111719" /><rect x="22" y="18" width="1" height="2" fill="#111719" /><rect x="15" y="19" width="1" height="1" fill="#0d1113" /><rect x="16" y="19" width="1" height="1" fill="#111719" /><rect x="17" y="19" width="5" height="1" fill="#efc638" /><rect x="27" y="19" width="1" height="1" fill="#111719" /><rect x="11" y="17" width="4" height="4" fill="#efc638" /><rect x="6" y="20" width="1" height="1" fill="#040709" /><rect x="7" y="20" width="2" height="1" fill="#efc638" /><rect x="9" y="20" width="2" height="1" fill="#0d1113" /><rect x="15" y="20" width="2" height="1" fill="#0d1113" /><rect x="17" y="20" width="4" height="1" fill="#efc638" /><rect x="21" y="20" width="2" height="1" fill="#111719" /><rect x="23" y="20" width="2" height="1" fill="#efc638" /><rect x="25" y="20" width="2" height="1" fill="#040709" /><rect x="5" y="20" width="1" height="2" fill="#0d1113" /><rect x="6" y="21" width="4" height="1" fill="#111719" /><rect x="10" y="21" width="3" height="1" fill="#0d1113" /><rect x="13" y="21" width="3" height="1" fill="#111719" /><rect x="16" y="21" width="1" height="1" fill="#0d1113" /><rect x="17" y="21" width="2" height="1" fill="#111719" /><rect x="19" y="21" width="3" height="1" fill="#0d1113" /><rect x="22" y="21" width="4" height="1" fill="#111719" /><rect x="26" y="21" width="1" height="1" fill="#040709" /><rect x="5" y="22" width="2" height="1" fill="#0d1113" /><rect x="8" y="22" width="2" height="1" fill="#21241c" /><rect x="10" y="22" width="1" height="1" fill="#0d1113" /><rect x="12" y="22" width="1" height="1" fill="#f0d876" /><rect x="13" y="22" width="2" height="1" fill="#efc638" /><rect x="21" y="22" width="1" height="1" fill="#0d1113" /><rect x="22" y="22" width="2" height="1" fill="#21241c" /><rect x="24" y="22" width="2" height="1" fill="#111719" /><rect x="26" y="22" width="1" height="1" fill="#21241c" /><rect x="7" y="22" width="1" height="2" fill="#111719" /><rect x="11" y="22" width="1" height="2" fill="#111719" /><rect x="15" y="22" width="2" height="2" fill="#0d1113" /><rect x="17" y="22" width="3" height="2" fill="#efc638" /><rect x="20" y="22" width="1" height="2" fill="#111719" /><rect x="6" y="23" width="1" height="1" fill="#040709" /><rect x="8" y="23" width="2" height="1" fill="#efc638" /><rect x="10" y="23" width="1" height="1" fill="#ac9030" /><rect x="12" y="23" width="3" height="1" fill="#efc638" /><rect x="21" y="23" width="1" height="1" fill="#ac9030" /><rect x="22" y="23" width="2" height="1" fill="#efc638" /><rect x="24" y="23" width="1" height="1" fill="#111719" /><rect x="25" y="23" width="1" height="1" fill="#21241c" /><rect x="7" y="24" width="2" height="1" fill="#0d1113" /><rect x="9" y="24" width="2" height="1" fill="#efc638" /><rect x="11" y="24" width="1" height="1" fill="#21241c" /><rect x="13" y="24" width="2" height="1" fill="#efc638" /><rect x="17" y="24" width="2" height="1" fill="#efc638" /><rect x="19" y="24" width="1" height="1" fill="#0d1113" /><rect x="20" y="24" width="1" height="1" fill="#21241c" /><rect x="21" y="24" width="2" height="1" fill="#efc638" /><rect x="24" y="24" width="1" height="1" fill="#0d1113" /><rect x="12" y="24" width="1" height="2" fill="#0d1113" /><rect x="15" y="24" width="2" height="2" fill="#111719" /><rect x="23" y="24" width="1" height="2" fill="#040709" /><rect x="8" y="25" width="4" height="1" fill="#040709" /><rect x="13" y="25" width="1" height="1" fill="#040709" /><rect x="14" y="25" width="1" height="1" fill="#efc638" /><rect x="17" y="25" width="1" height="1" fill="#efc638" /><rect x="18" y="25" width="1" height="1" fill="#040709" /><rect x="19" y="25" width="2" height="1" fill="#0d1113" /><rect x="21" y="25" width="1" height="1" fill="#040709" /><rect x="22" y="25" width="1" height="1" fill="#0d1113" /><rect x="9" y="26" width="1" height="1" fill="#ac9030" /><rect x="10" y="26" width="2" height="1" fill="#0d1113" /><rect x="12" y="26" width="1" height="1" fill="#111719" /><rect x="13" y="26" width="1" height="1" fill="#21241c" /><rect x="14" y="26" width="1" height="1" fill="#ac9030" /><rect x="15" y="26" width="1" height="1" fill="#111719" /><rect x="16" y="26" width="1" height="1" fill="#0d1113" /><rect x="17" y="26" width="1" height="1" fill="#ac9030" /><rect x="18" y="26" width="3" height="1" fill="#111719" /><rect x="21" y="26" width="1" height="1" fill="#21241c" /><rect x="12" y="27" width="1" height="1" fill="#21241c" /><rect x="13" y="27" width="3" height="1" fill="#111719" /><rect x="16" y="27" width="2" height="1" fill="#0d1113" /><rect x="18" y="27" width="1" height="1" fill="#21241c" /><rect x="19" y="27" width="1" height="1" fill="#111719" /></svg>